<svg xmlns="http://www.w3.org/2000/svg" viewBox="0 0 64 64">
  <!-- Alsó emelet -->
  <rect x="6" y="28" width="52" height="20" rx="4" fill="#CC0000"/>
  <!-- Felső emelet -->
  <rect x="10" y="8" width="44" height="22" rx="6" fill="#E53935"/>
  <!-- Felső ablakok -->
  <rect x="15" y="13" width="8" height="10" rx="2" fill="#BBDEFB"/>
  <rect x="27" y="13" width="8" height="10" rx="2" fill="#BBDEFB"/>
  <rect x="39" y="13" width="8" height="10" rx="2" fill="#BBDEFB"/>
  <!-- Alsó ablakok -->
  <rect x="15" y="32" width="10" height="8" rx="2" fill="#BBDEFB"/>
  <rect x="29" y="32" width="10" height="8" rx="2" fill="#BBDEFB"/>
  <!-- Ajtó -->
  <rect x="43" y="30" width="8" height="14" rx="2" fill="#FFF9C4"/>
  <!-- Díszcsík -->
  <rect x="6" y="26" width="52" height="3" rx="1" fill="#F5F5F5"/>
  <!-- Kerekek -->
  <circle cx="18" cy="52" r="5" fill="#333"/>
  <circle cx="46" cy="52" r="5" fill="#333"/>
  <circle cx="18" cy="52" r="2.5" fill="#888"/>
  <circle cx="46" cy="52" r="2.5" fill="#888"/>
  <!-- Fényszórók -->
  <rect x="3" y="36" width="4" height="4" rx="2" fill="#FFC93C"/>
  <rect x="57" y="36" width="4" height="4" rx="2" fill="#FF5252"/>
</svg>
